<svg width="378" height="84" viewBox="0 0 378 84" fill="none" xmlns="http://www.w3.org/2000/svg">
<rect width="378" height="84" rx="14" fill="#111827"/>
<path d="M45.56 29C49.08 29 51.72 29.4133 53.48 30.24C55.24 31.04 56.12 32.3333 56.12 34.12C56.12 35.88 55.5733 37.2267 54.48 38.16C53.4133 39.0667 52.1867 39.52 50.8 39.52C49.4133 39.52 48.16 39.1733 47.04 38.48C45.9467 37.76 45.1867 36.8133 44.76 35.64C43.7733 35.64 42.8267 35.9733 41.92 36.64C41.04 37.28 40.48 38.12 40.24 39.16C45.52 40.44 49.3067 41.9333 51.6 43.64C53.8933 45.3467 55.04 47.5333 55.04 50.2C55.04 52.8667 53.8267 55 51.4 56.6C49 58.2 45.7467 59 41.64 59C37.56 59 34.6667 58.44 32.96 57.32C31.2533 56.2 30.4 54.72 30.4 52.88C30.4 51.04 30.9733 49.3467 32.12 47.8C32.68 49 33.7467 50.08 35.32 51.04C36.92 52 38.4933 52.48 40.04 52.48C42.8933 52.48 44.7067 51.5733 45.48 49.76C41.0533 49.1733 37.68 47.9467 35.36 46.08C33.04 44.1867 31.88 41.9067 31.88 39.24C31.88 37.4533 32.36 35.8667 33.32 34.48C34.28 33.0667 35.5067 31.9867 37 31.24C39.9333 29.7467 42.7867 29 45.56 29ZM80.8191 34C84.0457 34 85.6591 35.6133 85.6591 38.84C85.6591 40.2267 85.2591 42.5733 84.4591 45.88C83.6857 49.1867 83.2991 51.68 83.2991 53.36C83.2991 55.04 83.5791 56.2667 84.1391 57.04C82.7257 58.3467 81.2324 59 79.6591 59C76.5924 59 75.0591 57.3467 75.0591 54.04C75.0591 52.8133 75.4591 50.7333 76.2591 47.8C77.0591 44.8667 77.4591 42.96 77.4591 42.08C77.4591 40.88 77.0057 40.28 76.0991 40.28C75.3524 40.28 74.4991 40.6133 73.5391 41.28C72.5791 41.92 71.6457 42.8 70.7391 43.92C69.8591 45.0133 69.1124 46.4133 68.4991 48.12C67.8857 49.8 67.5791 51.52 67.5791 53.28C67.5791 55.0133 67.8591 56.2667 68.4191 57.04C67.0057 58.3467 65.5124 59 63.9391 59C60.8724 59 59.3391 57.3467 59.3391 54.04C59.3391 52.0667 59.8724 48.0667 60.9391 42.04C61.8457 36.7333 62.3657 33.76 62.4991 33.12L60.2591 29.92C63.5924 27.9733 66.2191 27 68.1391 27C69.2324 27 70.0057 27.2267 70.4591 27.68C70.9124 28.1067 71.1391 28.8267 71.1391 29.84C71.1391 31.76 70.9524 33.8533 70.5791 36.12C70.2057 38.3867 69.8591 40.0533 69.5391 41.12L69.9391 41.32C72.7924 36.44 76.4191 34 80.8191 34ZM108.997 37.04C110.49 37.04 111.77 37.64 112.837 38.84C113.93 40.04 114.477 41.7867 114.477 44.08C114.477 46.3467 114.077 48.4533 113.277 50.4C112.477 52.32 111.423 53.8933 110.117 55.12C108.81 56.3467 107.33 57.3067 105.677 58C104.023 58.6667 102.33 59 100.597 59C97.1032 59 94.3432 58.04 92.3166 56.12C90.2899 54.2 89.2766 51.6533 89.2766 48.48C89.2766 44.1867 90.6499 40.7067 93.3966 38.04C96.1699 35.3467 99.6899 34 103.957 34C104.917 34 105.877 34.1067 106.837 34.32C107.13 35.2 107.29 36.2 107.317 37.32C107.877 37.1333 108.437 37.04 108.997 37.04ZM104.077 42.6C104.077 41.8533 104.25 41.0133 104.597 40.08C104.97 39.1467 105.557 38.4 106.357 37.84C102.837 38.5867 100.41 40.0133 99.0766 42.12C97.9299 43.9333 97.3566 45.8 97.3566 47.72C97.3566 49.64 97.7432 51.1867 98.5166 52.36C99.3166 53.5067 100.33 54.08 101.557 54.08C104.277 54.08 106.197 52.3067 107.317 48.76C105.157 47.4267 104.077 45.3733 104.077 42.6ZM122.71 65.96C121.057 65.96 119.897 65.5467 119.23 64.72C118.59 63.92 118.27 62.7467 118.27 61.2C118.27 59.68 118.59 56.6 119.23 51.96C119.897 47.32 120.537 43.36 121.15 40.08L118.91 36.88C120.564 35.92 121.99 35.2 123.19 34.72C124.39 34.2133 125.577 33.96 126.75 33.96C128.67 33.96 129.63 35.2267 129.63 37.76C129.63 38.1067 129.577 38.8133 129.47 39.88L129.87 40.08C130.644 38.16 131.764 36.6667 133.23 35.6C134.697 34.5067 136.417 33.96 138.39 33.96C140.39 33.96 141.977 34.8667 143.15 36.68C144.324 38.4667 144.91 40.6933 144.91 43.36C144.91 46.9333 143.657 50.1867 141.15 53.12C139.924 54.56 138.284 55.7333 136.23 56.64C134.177 57.52 131.884 57.96 129.35 57.96C128.577 57.96 127.564 57.8933 126.31 57.76C126.23 58.6933 126.19 59.56 126.19 60.36C126.19 62.0667 126.604 63.28 127.43 64C125.937 65.3067 124.364 65.96 122.71 65.96ZM127.95 49.4L127.03 54.04C130.257 53.96 132.83 52.9067 134.75 50.88C136.697 48.8267 137.67 46.5867 137.67 44.16C137.67 42.9067 137.417 41.9067 136.91 41.16C136.43 40.3867 135.724 40 134.79 40C131.484 40 129.204 43.1333 127.95 49.4ZM153.335 65.96C151.682 65.96 150.522 65.5467 149.855 64.72C149.215 63.92 148.895 62.7467 148.895 61.2C148.895 59.68 149.215 56.6 149.855 51.96C150.522 47.32 151.162 43.36 151.775 40.08L149.535 36.88C151.189 35.92 152.615 35.2 153.815 34.72C155.015 34.2133 156.202 33.96 157.375 33.96C159.295 33.96 160.255 35.2267 160.255 37.76C160.255 38.1067 160.202 38.8133 160.095 39.88L160.495 40.08C161.269 38.16 162.389 36.6667 163.855 35.6C165.322 34.5067 167.042 33.96 169.015 33.96C171.015 33.96 172.602 34.8667 173.775 36.68C174.949 38.4667 175.535 40.6933 175.535 43.36C175.535 46.9333 174.282 50.1867 171.775 53.12C170.549 54.56 168.909 55.7333 166.855 56.64C164.802 57.52 162.509 57.96 159.975 57.96C159.202 57.96 158.189 57.8933 156.935 57.76C156.855 58.6933 156.815 59.56 156.815 60.36C156.815 62.0667 157.229 63.28 158.055 64C156.562 65.3067 154.989 65.96 153.335 65.96ZM158.575 49.4L157.655 54.04C160.882 53.96 163.455 52.9067 165.375 50.88C167.322 48.8267 168.295 46.5867 168.295 44.16C168.295 42.9067 168.042 41.9067 167.535 41.16C167.055 40.3867 166.349 40 165.415 40C162.109 40 159.829 43.1333 158.575 49.4ZM192.44 27.68C192.44 28.6933 191.907 29.5733 190.84 30.32C189.774 31.04 188.56 31.4 187.2 31.4C185.84 31.4 184.76 31.1333 183.96 30.6C183.187 30.0667 182.8 29.3467 182.8 28.44C182.8 27.2133 183.374 26.2533 184.52 25.56C185.667 24.8667 186.88 24.52 188.16 24.52C189.44 24.52 190.467 24.7867 191.24 25.32C192.04 25.8533 192.44 26.64 192.44 27.68ZM184.64 59C182.987 59 181.787 58.5867 181.04 57.76C180.294 56.9333 179.92 55.68 179.92 54C179.92 52.2933 180.774 47.7467 182.48 40.36L180.24 37C183.574 35 186.2 34 188.12 34C189.214 34 189.987 34.24 190.44 34.72C190.894 35.1733 191.12 35.92 191.12 36.96C191.12 37.36 190.627 39.7067 189.64 44C188.654 48.2933 188.16 51.36 188.16 53.2C188.16 55.04 188.574 56.32 189.4 57.04C187.907 58.3467 186.32 59 184.64 59ZM199.628 59C198.055 59 196.895 58.5867 196.148 57.76C195.401 56.9333 195.028 55.84 195.028 54.48C195.028 53.12 195.295 50.9067 195.828 47.84C196.388 44.7733 196.961 41.9733 197.548 39.44L195.468 36.24C198.108 34.7467 200.548 34 202.788 34C205.028 34 206.148 35.0133 206.148 37.04C206.148 38.3733 205.841 39.7333 205.228 41.12L205.628 41.32C208.481 36.44 212.108 34 216.508 34C219.735 34 221.348 35.6133 221.348 38.84C221.348 40.2267 220.948 42.5733 220.148 45.88C219.375 49.1867 218.988 51.68 218.988 53.36C218.988 55.04 219.268 56.2667 219.828 57.04C218.415 58.3467 216.921 59 215.348 59C212.281 59 210.748 57.3467 210.748 54.04C210.748 52.8133 211.148 50.7333 211.948 47.8C212.748 44.8667 213.148 42.96 213.148 42.08C213.148 40.88 212.695 40.28 211.788 40.28C211.041 40.28 210.188 40.6133 209.228 41.28C208.268 41.92 207.335 42.8 206.428 43.92C205.548 45.0133 204.801 46.4133 204.188 48.12C203.575 49.8 203.268 51.52 203.268 53.28C203.268 55.0133 203.548 56.2667 204.108 57.04C202.695 58.3467 201.201 59 199.628 59ZM232.701 46.8C232.701 48.16 233.074 49.2667 233.821 50.12C234.594 50.9467 235.541 51.36 236.661 51.36C238.181 51.36 239.541 50.64 240.741 49.2C241.194 46.8267 241.781 43.08 242.501 37.96C239.514 37.96 237.127 38.8267 235.341 40.56C233.581 42.2933 232.701 44.3733 232.701 46.8ZM243.301 61.96C242.047 63.64 240.474 64.96 238.581 65.92C236.687 66.9067 234.687 67.4 232.581 67.4C230.501 67.4 228.821 67 227.541 66.2C226.287 65.4267 225.661 64.3733 225.661 63.04C225.661 61.7067 226.207 60.3067 227.301 58.84C228.527 60.6533 230.367 61.56 232.821 61.56C234.421 61.56 235.901 60.8667 237.261 59.48C238.647 58.12 239.567 56.12 240.021 53.48L239.621 53.28C237.727 56.0533 235.301 57.44 232.341 57.44C230.101 57.44 228.341 56.5733 227.061 54.84C225.781 53.1067 225.141 50.8 225.141 47.92C225.141 45.1467 225.901 42.6133 227.421 40.32C229.154 37.68 231.567 35.8533 234.661 34.84C236.367 34.28 237.994 34 239.541 34C241.087 34 242.394 34.1067 243.461 34.32C243.621 35.04 243.714 35.6933 243.741 36.28C244.994 35.4267 246.261 35 247.541 35C249.381 35 250.301 35.9467 250.301 37.84C250.301 39.7333 250.181 41.68 249.941 43.68C249.701 45.6533 249.327 47.7733 248.821 50.04C248.314 52.3067 247.581 54.4533 246.621 56.48C245.687 58.48 244.581 60.3067 243.301 61.96Z" fill="white"/>
<path d="M237.5 46.65C237.5 44.3167 238 41.95 239 39.55C240 37.1167 241.417 34.8667 243.25 32.8C245.083 30.7333 247.467 29.05 250.4 27.75C253.367 26.4167 256.417 25.75 259.55 25.75C262.717 25.75 265.183 26.3333 266.95 27.5C268.75 28.6667 269.65 30.2833 269.65 32.35C269.65 34.4167 268.967 36.0333 267.6 37.2C266.267 38.3333 264.733 38.9 263 38.9C261.267 38.9 259.7 38.5333 258.3 37.8C256.933 37.0333 255.833 35.95 255 34.55C253.2 35.4167 251.65 37.1167 250.35 39.65C249.05 42.1833 248.4 44.7333 248.4 47.3C248.4 49.8333 248.817 51.85 249.65 53.35C250.483 54.8167 251.667 55.55 253.2 55.55C254.733 55.55 256.083 54.7667 257.25 53.2C258.45 51.6333 259.05 49.75 259.05 47.55C262.417 47.55 264.817 47.8167 266.25 48.35C267.717 48.8833 268.45 50.0333 268.45 51.8C268.45 54.5667 266.95 57.1667 263.95 59.6C260.95 62.0333 257.183 63.25 252.65 63.25C248.117 63.25 244.45 61.85 241.65 59.05C238.883 56.25 237.5 52.1167 237.5 46.65ZM291.481 55.85L290.981 55.6C290.081 58 288.781 59.8833 287.081 61.25C285.414 62.5833 283.548 63.25 281.481 63.25C278.648 63.25 276.381 62.1833 274.681 60.05C272.981 57.9167 272.131 55.0667 272.131 51.5C272.131 45.9667 273.981 41.3333 277.681 37.6C281.414 33.8667 286.048 32 291.581 32C293.014 32 294.331 32.1333 295.531 32.4C295.731 33.3333 295.848 34.15 295.881 34.85C297.548 33.7833 299.264 33.25 301.031 33.25C303.464 33.25 304.681 34.5667 304.681 37.2C304.681 38.1333 304.148 40.95 303.081 45.65C302.048 50.35 301.531 53.8333 301.531 56.1C301.531 58.3667 302.048 59.9333 303.081 60.8C301.214 62.4333 299.264 63.25 297.231 63.25C295.231 63.25 293.764 62.65 292.831 61.45C291.931 60.25 291.481 58.3833 291.481 55.85ZM281.531 49.05C281.531 50.6833 281.864 51.95 282.531 52.85C283.231 53.7167 284.214 54.15 285.481 54.15C286.748 54.15 287.998 53.6833 289.231 52.75C290.464 51.8167 291.498 50.5333 292.331 48.9C292.631 45.5333 293.281 41.55 294.281 36.95C290.914 36.95 287.948 38.1667 285.381 40.6C282.814 43.0333 281.531 45.85 281.531 49.05ZM309.697 57.05C309.697 55.7167 310.031 53.1333 310.697 49.3C311.397 45.4667 312.114 41.9667 312.847 38.8L310.247 34.8C314.414 32.9333 317.331 32 318.997 32C320.697 32 321.547 33.0667 321.547 35.2C321.547 36.3667 320.997 38.8 319.897 42.5L320.397 42.75C322.797 35.5833 325.781 32 329.347 32C330.981 32 332.231 32.5 333.097 33.5C333.964 34.5 334.397 35.6167 334.397 36.85C334.397 38.6833 333.714 40.25 332.347 41.55C330.981 42.85 328.931 43.5 326.197 43.5C322.064 43.5 319.997 47.75 319.997 56.25C319.997 58.3167 320.347 59.8333 321.047 60.8C318.981 62.4333 317.081 63.25 315.347 63.25C311.581 63.25 309.697 61.1833 309.697 57.05ZM336.762 43.95C336.529 43.0167 336.412 42.15 336.412 41.35C336.412 39.7167 336.895 38.4833 337.862 37.65C338.829 36.8167 340.079 36.4 341.612 36.4C341.612 34.6667 341.162 32.7833 340.262 30.75C341.895 29.55 343.379 28.65 344.712 28.05C346.079 27.4167 347.512 27.1 349.012 27.1C350.512 27.1 351.545 27.3833 352.112 27.95C352.712 28.4833 353.012 29.3167 353.012 30.45C353.012 31.5833 352.779 33.35 352.312 35.75C353.645 35.55 354.995 35.2667 356.362 34.9C356.595 35.6 356.712 36.5 356.712 37.6C356.712 38.7 356.279 39.7333 355.412 40.7C354.579 41.6333 353.345 42.1 351.712 42.1H350.962C349.762 47.5333 349.162 51.7167 349.162 54.65C349.162 57.5833 349.679 59.6333 350.712 60.8C348.845 62.4333 346.862 63.25 344.762 63.25C342.662 63.25 341.145 62.6333 340.212 61.4C339.312 60.1333 338.862 58.1833 338.862 55.55C338.862 53.95 339.445 49.75 340.612 42.95C339.279 43.1833 337.995 43.5167 336.762 43.95Z" fill="#1D4ED8"/>
</svg>
